<?xml version="1.0" encoding="UTF-8" standalone="no"?>
<!DOCTYPE svg PUBLIC "-//W3C//DTD SVG 1.1//EN"
 "http://www.w3.org/Graphics/SVG/1.1/DTD/svg11.dtd">
<!-- Generated by graphviz version 2.38.0 (20140413.2041)
 -->
<!-- Title: Functions Pages: 1 -->
<svg width="369pt" height="232pt"
 viewBox="0.00 0.00 368.50 232.00" xmlns="http://www.w3.org/2000/svg" xmlns:xlink="http://www.w3.org/1999/xlink">
<g id="graph0" class="graph" transform="scale(1 1) rotate(0) translate(4 228)">
<title>Functions</title>
<polygon fill="white" stroke="none" points="-4,4 -4,-228 364.5,-228 364.5,4 -4,4"/>
<!-- CreateBlogArticleContent -->
<g id="node1" class="node"><title>CreateBlogArticleContent</title>
<polygon fill="#eff3ff" stroke="black" points="188,-119 0,-119 0,-83 194,-83 194,-113 188,-119"/>
<polyline fill="none" stroke="black" points="188,-119 188,-113 "/>
<polyline fill="none" stroke="black" points="194,-113 188,-113 "/>
<text text-anchor="middle" x="97" y="-97.3" font-family="Segoe UI" font-size="14.00">CreateBlogArticleContent</text>
</g>
<!-- httpTrigger -->
<g id="node2" class="node"><title>httpTrigger</title>
<polygon fill="white" stroke="none" points="347,-224 7,-224 7,-166 347,-166 347,-224"/>
<polygon fill="none" stroke="black" points="15,-193 15,-220 339,-220 339,-193 15,-193"/>
<text text-anchor="start" x="128.5" y="-202.8" font-family="Segoe UI" font-size="14.00">HTTP Triggers</text>
<polygon fill="#bdd7e7" stroke="none" points="15,-170 15,-193 193,-193 193,-170 15,-170"/>
<polygon fill="none" stroke="black" points="15,-170 15,-193 193,-193 193,-170 15,-170"/>
<text text-anchor="start" x="21" y="-180" font-family="Segoe UI" font-weight="bold" font-size="10.00">/api/CreateBlogArticleContent</text>
<polygon fill="#bdd7e7" stroke="none" points="193,-170 193,-193 339,-193 339,-170 193,-170"/>
<polygon fill="none" stroke="black" points="193,-170 193,-193 339,-193 339,-170 193,-170"/>
<text text-anchor="start" x="199" y="-180" font-family="Segoe UI" font-weight="bold" font-size="10.00">/api/AddManualRssFeed</text>
</g>
<!-- httpTrigger&#45;&gt;CreateBlogArticleContent -->
<g id="edge1" class="edge"><title>httpTrigger:CreateBlogArticleContent&#45;&gt;CreateBlogArticleContent</title>
<path fill="none" stroke="black" d="M104,-169C104,-155.793 102.638,-141.202 101.116,-129.016"/>
<polygon fill="black" stroke="black" points="99.7666,-119.022 105.564,-128.331 100.435,-123.977 101.104,-128.933 101.104,-128.933 101.104,-128.933 100.435,-123.977 96.6448,-129.535 99.7666,-119.022 99.7666,-119.022"/>
<text text-anchor="middle" x="122.5" y="-140" font-family="Segoe UI" font-size="10.00"> &#160;&#160;Trigger</text>
</g>
<!-- AddManualRssFeed -->
<g id="node3" class="node"><title>AddManualRssFeed</title>
<polygon fill="#eff3ff" stroke="black" points="354.5,-119 211.5,-119 211.5,-83 360.5,-83 360.5,-113 354.5,-119"/>
<polyline fill="none" stroke="black" points="354.5,-119 354.5,-113 "/>
<polyline fill="none" stroke="black" points="360.5,-113 354.5,-113 "/>
<text text-anchor="middle" x="286" y="-97.3" font-family="Segoe UI" font-size="14.00">AddManualRssFeed</text>
</g>
<!-- httpTrigger&#45;&gt;AddManualRssFeed -->
<g id="edge2" class="edge"><title>httpTrigger:AddManualRssFeed&#45;&gt;AddManualRssFeed</title>
<path fill="none" stroke="black" d="M266,-169C266,-155.343 269.862,-140.751 274.192,-128.682"/>
<polygon fill="black" stroke="black" points="277.865,-119.214 278.444,-130.165 276.057,-123.875 274.249,-128.537 274.249,-128.537 274.249,-128.537 276.057,-123.875 270.053,-126.91 277.865,-119.214 277.865,-119.214"/>
<text text-anchor="middle" x="291.5" y="-140" font-family="Segoe UI" font-size="10.00"> &#160;&#160;Trigger</text>
</g>
<!-- Table &#45; RssFeeds &#45; RssFeedsTableStorageConnectionString -->
<g id="node4" class="node"><title>Table &#45; RssFeeds &#45; RssFeedsTableStorageConnectionString</title>
<polygon fill="#2171b5" stroke="black" points="313,-36 259,-36 259,-0 313,-0 313,-36"/>
<text text-anchor="middle" x="286" y="-14.3" font-family="Segoe UI" font-size="14.00" fill="white">Table</text>
</g>
<!-- AddManualRssFeed&#45;&gt;Table &#45; RssFeeds &#45; RssFeedsTableStorageConnectionString -->
<g id="edge3" class="edge"><title>AddManualRssFeed&#45;&gt;Table &#45; RssFeeds &#45; RssFeedsTableStorageConnectionString</title>
<path fill="none" stroke="black" d="M286,-82.822C286,-72.1903 286,-58.306 286,-46.2035"/>
<polygon fill="black" stroke="black" points="282,-36.1533 290,-36.1532 290,-44.1532 282,-44.1533 282,-36.1533"/>
<polyline fill="none" stroke="black" points="286,-44.1533 286,-46.1533 "/>
<text text-anchor="middle" x="307.5" y="-57" font-family="Segoe UI" font-size="10.00"> &#160;&#160;Output</text>
</g>
</g>
</svg>
